<?xml version="1.0" encoding="iso-8859-1"?>
<!-- Generator: Adobe Illustrator 19.0.0, SVG Export Plug-In . SVG Version: 6.00 Build 0)  -->
<svg xmlns="http://www.w3.org/2000/svg" xmlns:xlink="http://www.w3.org/1999/xlink" version="1.1" id="Layer_1" x="0px" y="0px" viewBox="0 0 512 512" style="enable-background:new 0 0 512 512;" xml:space="preserve" width="512" height="512">
<g>
	<path style="fill:#6AD1B6;" d="M502,486H10V186C10,97.634,81.634,26,170,26h172c88.366,0,160,71.634,160,160V486z"/>
	<path style="fill:#FAD296;" d="M451,446V291c0-107.696-87.304-195-195-195S61,183.304,61,291v155H451z"/>
	<path style="fill:#FFC87A;" d="M256,176c-74.558,0-135,60.442-135,135s60.442,135,135,135s135-60.442,135-135S330.558,176,256,176z   "/>
	<path style="fill:#65E0C0;" d="M256,216c-52.467,0-95,42.533-95,95s42.533,95,95,95s95-42.533,95-95S308.467,216,256,216z"/>
	<rect x="186" y="446" style="fill:#8397AA;" width="140" height="40"/>
	<rect x="366" y="446" style="fill:#8397AA;" width="136" height="40"/>
	<rect x="10" y="446" style="fill:#8397AA;" width="136" height="40"/>
	<path style="fill:#C4702A;" d="M157.091,116.064c-29.324,15.223-55.159,37.397-74.712,64.128   c-6.521,8.915-4.581,21.429,4.334,27.95s21.428,4.58,27.95-4.334c32.694-44.694,85.095-71.473,140.337-71.793v-40   C220.956,92.175,187.122,100.474,157.091,116.064z"/>
	<path style="fill:#C4702A;" d="M429.622,180.192c-19.553-26.73-45.388-48.905-74.712-64.128C324.583,100.321,290.381,92,256,92   c-0.333,0-0.667,0.013-1,0.015v40c0.334-0.002,0.666-0.015,1-0.015c55.61,0,108.446,26.844,141.337,71.808   c3.917,5.355,9.996,8.193,16.158,8.193c4.097,0,8.231-1.255,11.792-3.859C434.203,201.621,436.143,189.107,429.622,180.192z"/>
	<g>
		<path d="M180.01,56c0,0,0,0-0.01,0c-10.81,0-21.59,1.24-32.02,3.68c-2.6,0.61-4.81,2.19-6.22,4.46c-1.41,2.27-1.85,4.95-1.24,7.56    c0.52,2.21,1.79,4.19,3.57,5.59c1.76,1.37,3.94,2.13,6.16,2.13c0.77,0,1.54-0.09,2.29-0.27C161.48,77.06,170.72,76,180,76    c5.51,0,10-4.49,10-10C190,60.49,185.52,56.01,180.01,56z"/>
		<path d="M89.31,102.33c-1.83-1.62-4.19-2.52-6.63-2.52c-2.86,0-5.59,1.23-7.49,3.37l-0.01,0.01c-7.14,8.06-13.35,16.94-18.46,26.4    c-2.62,4.85-0.8,10.93,4.05,13.55c1.46,0.79,3.1,1.2,4.75,1.2c3.68,0,7.06-2.01,8.8-5.25c4.38-8.1,9.71-15.72,15.84-22.64    C93.81,112.32,93.43,105.99,89.31,102.33z"/>
		<path d="M113.32,74.37c-1.8,0-3.57,0.49-5.12,1.42c-2.29,1.37-3.91,3.56-4.56,6.15c-0.66,2.59-0.26,5.28,1.11,7.57    c1.8,3,5.09,4.86,8.59,4.86c1.8,0,3.58-0.49,5.13-1.42c4.73-2.83,6.28-8.98,3.44-13.71C120.12,76.24,116.83,74.37,113.32,74.37z"/>
		<path d="M401.97,75.79c-1.55-0.93-3.32-1.42-5.12-1.42c-3.51,0-6.8,1.87-8.59,4.87c-1.38,2.29-1.77,4.98-1.12,7.57    c0.65,2.59,2.27,4.77,4.56,6.14c1.55,0.93,3.33,1.42,5.13,1.42c3.5,0,6.79-1.86,8.59-4.86c1.37-2.29,1.77-4.98,1.12-7.57    C405.89,79.35,404.27,77.16,401.97,75.79z"/>
		<path d="M427.49,99.81c-2.44,0-4.8,0.9-6.63,2.52c-4.12,3.66-4.51,9.99-0.85,14.12c6.14,6.92,11.46,14.54,15.84,22.64    c1.75,3.24,5.12,5.25,8.81,5.25c1.64,0,3.28-0.41,4.74-1.2c4.85-2.62,6.66-8.7,4.05-13.55c-5.11-9.46-11.32-18.34-18.47-26.41    C433.08,101.04,430.35,99.81,427.49,99.81z"/>
		<path d="M362.19,59.68C351.76,57.24,340.98,56,330.17,56c-5.51,0-10,4.49-10,10c0,5.51,4.49,10,10,10c0.01,0,0.01,0,0.01,0    c9.29,0,18.52,1.06,27.45,3.15c0.76,0.18,1.52,0.27,2.29,0.27c2.22,0,4.4-0.76,6.16-2.13c1.78-1.4,3.05-3.38,3.57-5.59    C370.9,66.33,367.56,60.94,362.19,59.68z"/>
		<path d="M342,16H170C76.262,16,0,92.262,0,186v300c0,5.523,4.477,10,10,10h492c5.523,0,10-4.477,10-10V186    C512,92.262,435.738,16,342,16z M136,476H20v-20h116V476z M176,476h-20v-20h20V476z M316,476H196v-20h120V476z M131,311    c0-68.925,56.075-125,125-125s125,56.075,125,125s-56.075,125-125,125S131,379.925,131,311z M401,311c0-79.953-65.047-145-145-145    s-145,65.047-145,145c0,53.185,28.789,99.766,71.596,125H111v-12c0-5.51-4.49-10-10-10c-5.51,0-10,4.49-10,10v12H71V291    c0-25.509,5.214-49.817,14.594-71.946c4.101,1.961,8.504,2.935,12.886,2.935c9.251,0,18.384-4.255,24.253-12.277    c30.788-42.088,80.255-67.396,132.324-67.697h0h0L256,142c52.432,0,102.251,25.313,133.266,67.712    c5.629,7.695,14.687,12.29,24.229,12.29c4.524,0,8.901-1.02,12.911-2.944C435.786,241.186,441,265.492,441,291v145h-20v-12    c0-5.51-4.49-10-10-10c-5.51,0-10,4.49-10,10v12h-71.596C372.211,410.766,401,364.185,401,311z M90.45,186.096    c18.647-25.493,43.285-46.64,71.249-61.156c25.645-13.313,54.25-21.062,83.302-22.629v20.034    c-54.686,3.301-105.86,31.065-138.408,75.559c-3.257,4.45-9.526,5.421-13.976,2.168C88.166,196.815,87.194,190.546,90.45,186.096z     M265,122.222v-20.023c29.727,1.313,59.04,9.107,85.302,22.741c27.963,14.516,52.601,35.664,71.249,61.156l0,0    c3.255,4.45,2.283,10.719-2.167,13.975c-1.727,1.263-3.763,1.931-5.888,1.931c-3.235,0-6.182-1.493-8.087-4.097    C372.419,152.806,320.451,124.953,265,122.222z M356,476h-20v-20h20V476z M492,476H376v-20h116V476z M492,436h-31V291    c0-31.352-7.102-61.068-19.74-87.664c0.87-2.142,1.502-4.398,1.865-6.74c1.228-7.918-0.701-15.841-5.432-22.309v0    c-20.458-27.968-47.491-51.17-78.176-67.1C327.773,90.71,291.978,82,256,82c-0.249,0-0.497,0.004-0.745,0.01l-0.299,0.005h-0.002    c0,0-0.001,0-0.001,0c-35.634,0.167-71.067,8.872-102.47,25.173c-30.685,15.929-57.718,39.132-78.176,67.099    c-4.731,6.468-6.66,14.391-5.432,22.309c0.363,2.344,0.997,4.601,1.867,6.744C58.104,229.936,51,259.649,51,291v145H20V186    c0-82.71,67.29-150,150-150h172c82.71,0,150,67.29,150,150V436z"/>
		<path d="M101,374c-5.51,0-10,4.49-10,10c0,5.51,4.49,10,10,10c5.51,0,10-4.49,10-10C111,378.49,106.51,374,101,374z"/>
		<path d="M411,394c5.51,0,10-4.49,10-10c0-5.51-4.49-10-10-10c-5.51,0-10,4.49-10,10C401,389.51,405.49,394,411,394z"/>
		<path d="M361,311c0-57.897-47.103-105-105-105s-105,47.103-105,105s47.103,105,105,105S361,368.897,361,311z M171,311    c0-46.869,38.131-85,85-85s85,38.131,85,85s-38.131,85-85,85S171,357.869,171,311z"/>
		<path d="M266,312c0-5.51-4.49-10-10-10c-5.51,0-10,4.49-10,10c0,5.51,4.49,10,10,10C261.51,322,266,317.51,266,312z"/>
	</g>
</g>















</svg>
