<svg id="brain" enable-background="new 0 0 300 300" height="512" viewBox="0 0 300 300" width="512" xmlns="http://www.w3.org/2000/svg"><g><circle cx="149.556" cy="112.582" fill="#e5efef" r="86"/><path d="m132.209 47.93c-1.023 0-2.047-.391-2.828-1.172-1.562-1.562-1.562-4.094 0-5.656l14.695-14.695c1.562-1.562 4.094-1.562 5.656 0s1.562 4.094 0 5.656l-14.695 14.695c-.781.781-1.805 1.172-2.828 1.172z" fill="#4c241d"/><path d="m146.904 47.93c-1.023 0-2.047-.391-2.828-1.172l-14.695-14.695c-1.562-1.562-1.562-4.094 0-5.656s4.094-1.562 5.656 0l14.695 14.695c1.562 1.562 1.562 4.094 0 5.656-.781.781-1.805 1.172-2.828 1.172z" fill="#4c241d"/><circle cx="103.556" cy="50.582" fill="#4c241d" r="4"/><path d="m183.556 74.582c-6.617 0-12-5.383-12-12s5.383-12 12-12 12 5.383 12 12-5.382 12-12 12zm0-16c-2.207 0-4 1.793-4 4s1.793 4 4 4 4-1.793 4-4-1.793-4-4-4z" fill="#4c241d"/><g><path d="m135.556 266.582h74.326v-15.113c0-9.003 7.344-16.887 16.403-16.887h6.845c7.408 0 13.414-5.384 13.414-12.746v-28.854h10.292c5.184 0 8.41-5.649 5.791-10.139l-13.981-23.968v-1.344c0-41.393-33.764-74.949-75.415-74.949-9.008 0-17.622 1.592-25.674 4.379" fill="#bf7e68"/><path d="m209.881 270.582h-74.324c-2.211 0-4-1.789-4-4s1.789-4 4-4h70.324v-11.113c0-11.32 9.344-20.887 20.406-20.887h6.844c5.367 0 9.414-3.762 9.414-8.746v-28.856c0-2.211 1.789-4 4-4h10.293c1.41 0 2.109-.953 2.344-1.363.238-.414.715-1.516-.008-2.758l-13.984-23.969c-.355-.613-.543-1.309-.543-2.016v-1.344c0-39.121-32.035-70.949-71.414-70.949-8.203 0-16.402 1.398-24.367 4.16-2.09.711-4.367-.383-5.09-2.473-.723-2.086.383-4.363 2.473-5.09 8.809-3.051 17.887-4.598 26.984-4.598 43.789 0 79.414 35.418 79.414 78.949v.262l13.438 23.035c1.961 3.363 1.977 7.391.035 10.773-1.934 3.367-5.402 5.379-9.281 5.379h-6.293v24.855c0 9.391-7.648 16.746-17.414 16.746h-6.844c-6.727 0-12.406 5.902-12.406 12.887v15.113c-.001 2.214-1.79 4.003-4.001 4.003z" fill="#4c241d"/></g><path d="m231.556 162.582h-20c-2.211 0-4-1.789-4-4s1.789-4 4-4h20c2.211 0 4 1.789 4 4s-1.789 4-4 4z" fill="#4c241d"/><circle cx="221.556" cy="162.582" fill="#4c241d" r="8"/><path d="m227.556 238.582h-28c-2.211 0-4-1.789-4-4s1.789-4 4-4h28c2.211 0 4 1.789 4 4s-1.789 4-4 4z" fill="#4c241d"/><g><path d="m147.556 163.969c0-32.849 0-63.651 0-68.902 0-11.416-9.328-20.671-20.835-20.671-9.256 0-17.092 5.993-19.808 14.277-1.451-.317-2.953-.497-4.5-.497-11.507 0-20.835 9.255-20.835 20.671 0 2.456.454 4.801 1.246 6.986-3.328-2.235-7.342-3.541-11.664-3.541-11.507 0-20.835 9.255-20.835 20.671 0 4.028 1.18 7.774 3.188 10.953-10.179 5.573-17.078 16.317-17.078 28.666s6.9 23.093 17.078 28.666c-2.008 3.178-3.188 6.925-3.188 10.953 0 11.416 9.328 20.671 20.835 20.671 4.322 0 8.336-1.306 11.664-3.541-.792 2.185-1.246 4.53-1.246 6.986 0 11.416 9.328 20.671 20.835 20.671 1.547 0 3.05-.179 4.5-.497 2.715 8.284 10.551 14.277 19.808 14.277 11.507 0 20.835-9.255 20.835-20.671 0-4.122 0-23.989 0-48.231" fill="#ffded5"/><path d="m126.72 274.766c-9.617 0-18.211-5.449-22.324-13.859-14.516 1.191-26.816-10.332-26.816-24.59 0-.094 0-.184 0-.277-2.074.551-4.23.832-6.418.832-13.695 0-24.836-11.066-24.836-24.672 0-3.273.66-6.5 1.93-9.504-9.844-6.828-15.82-18.043-15.82-30.113s5.977-23.285 15.82-30.113c-1.27-3.004-1.93-6.23-1.93-9.504 0-13.605 11.141-24.672 24.836-24.672 2.188 0 4.344.281 6.418.832 0-.094 0-.184 0-.277 0-14.258 12.301-25.797 26.816-24.59 4.113-8.41 12.707-13.859 22.324-13.859 13.695 0 24.836 11.066 24.836 24.668v68.902c0 2.211-1.789 4-4 4s-4-1.789-4-4v-68.904c0-9.191-7.551-16.668-16.836-16.668-7.312 0-13.746 4.629-16.008 11.52-.641 1.953-2.672 3.094-4.652 2.66-10.828-2.336-20.48 5.898-20.48 16.27 0 1.891.34 3.781 1.008 5.617.59 1.629.066 3.449-1.297 4.516-1.363 1.074-3.262 1.137-4.695.172-2.785-1.871-6.047-2.859-9.434-2.859-9.285 0-16.836 7.48-16.836 16.672 0 3.105.887 6.156 2.57 8.816.59.934.766 2.07.488 3.141-.277 1.066-.98 1.977-1.949 2.504-9.254 5.062-15 14.703-15 25.156s5.746 20.094 15 25.156c.969.527 1.672 1.438 1.949 2.504.277 1.07.102 2.207-.488 3.141-1.684 2.66-2.57 5.711-2.57 8.816 0 9.191 7.551 16.672 16.836 16.672 3.387 0 6.648-.988 9.434-2.859 1.434-.961 3.332-.898 4.695.172 1.363 1.066 1.887 2.887 1.297 4.516-.668 1.836-1.008 3.727-1.008 5.617 0 10.371 9.656 18.605 20.48 16.27 1.969-.445 4.012.707 4.652 2.66 2.262 6.891 8.695 11.52 16.008 11.52 9.285 0 16.836-7.477 16.836-16.668v-48.23c0-2.211 1.789-4 4-4s4 1.789 4 4v48.23c0 13.599-11.14 24.666-24.836 24.666z" fill="#4c241d"/></g><g fill="#4c241d"><path d="m101.892 260.988c-2.211 0-4-1.789-4-4s1.789-4 4-4c9.191 0 16.672-7.48 16.672-16.672 0-2.211 1.789-4 4-4s4 1.789 4 4c0 13.606-11.066 24.672-24.672 24.672z"/><path d="m122.564 112.848c-2.211 0-4-1.789-4-4 0-9.191-7.48-16.672-16.672-16.672-2.211 0-4-1.789-4-4s1.789-4 4-4c13.605 0 24.672 11.066 24.672 24.672 0 2.211-1.789 4-4 4z"/><path d="m72.607 167.969c-2.211 0-4-1.789-4-4s1.789-4 4-4c4.445 0 8.059-3.613 8.059-8.059 0-4.441-3.613-8.055-8.059-8.055h-1.723c-2.211 0-4-1.789-4-4s1.789-4 4-4h1.723c8.855 0 16.059 7.203 16.059 16.055 0 8.856-7.203 16.059-16.059 16.059z"/><path d="m74.33 209.309c-2.211 0-4-1.789-4-4v-.863c0-11.703 9.523-21.227 21.227-21.227 2.211 0 4 1.789 4 4s-1.789 4-4 4c-7.293 0-13.227 5.934-13.227 13.227v.863c0 2.211-1.789 4-4 4z"/><path d="m101.892 140.41c-2.211 0-4-1.789-4-4s1.789-4 4-4c3.492 0 6.336-2.844 6.336-6.336 0-2.211 1.789-4 4-4s4 1.789 4 4c0 7.906-6.429 14.336-14.336 14.336z"/><path d="m117.396 226.535c-10.754 0-19.504-8.75-19.504-19.504 0-2.211 1.789-4 4-4s4 1.789 4 4c0 6.344 5.16 11.504 11.504 11.504 2.211 0 4 1.789 4 4s-1.789 4-4 4z"/><path d="m147.556 205.867h-12.109c-7.41 0-13.441-6.031-13.441-13.441 0-7.785-6.336-14.121-14.121-14.121h-2.547c-2.211 0-4-1.789-4-4s1.789-4 4-4h2.547c12.199 0 22.121 9.922 22.121 22.121 0 3 2.441 5.441 5.441 5.441h12.109c2.211 0 4 1.789 4 4s-1.789 4-4 4z"/><path d="m147.556 167.969h-11.215c-9.801 0-17.777-7.977-17.777-17.781 0-2.211 1.789-4 4-4s4 1.789 4 4c0 5.395 4.387 9.781 9.777 9.781h11.215c2.211 0 4 1.789 4 4s-1.789 4-4 4z"/></g></g></svg>